<svg width="66" height="66" viewBox="0 0 66 66" fill="none" xmlns="http://www.w3.org/2000/svg">
<circle cx="33" cy="33" r="33" fill="#D9D9D9"/>
<circle cx="33" cy="33" r="29" fill="#555555"/>
<path d="M24.1808 50.2533C23.3797 49.7419 22.6697 49.1101 22.0781 48.3821C21.4274 47.6307 20.8245 46.8423 20.2726 46.0213C18.9776 44.2011 17.962 42.2118 17.257 40.1144C16.4101 37.678 16 35.3427 16 33.0587C16 30.5078 16.5752 28.281 17.7002 26.4098C18.5341 24.9473 19.7602 23.7252 21.2516 22.8698C22.6969 22.0085 24.3576 21.5372 26.0587 21.5055C26.6542 21.5055 27.2954 21.5883 27.976 21.7467C28.4648 21.8794 29.0603 22.089 29.7879 22.3496C30.7135 22.692 31.2227 22.9015 31.3953 22.9526C31.9375 23.1427 32.3933 23.2255 32.7514 23.2255C33.0231 23.2255 33.4066 23.1427 33.8421 23.016C34.0871 22.9332 34.5493 22.787 35.2108 22.5153C35.866 22.2863 36.3815 22.0902 36.7916 21.944C37.4202 21.7661 38.0284 21.6017 38.5705 21.5189C39.2133 21.4216 39.8656 21.3959 40.5145 21.4421C41.639 21.5126 42.7465 21.7412 43.8018 22.1206C45.5273 22.787 46.9227 23.8273 47.9614 25.3062C47.5224 25.5658 47.1104 25.8652 46.731 26.2003C45.9052 26.9027 45.2018 27.7273 44.6474 28.6428C43.9228 29.8939 43.5471 31.3033 43.5567 32.7346C43.5834 34.4925 44.0532 36.0408 44.9788 37.3795C45.6593 38.3718 46.5437 39.2203 47.5779 39.8732C48.1074 40.2155 48.5632 40.4506 49 40.6089C48.7956 41.218 48.5772 41.8076 48.3194 42.3923C47.7349 43.7036 47.0264 44.9607 46.2028 46.148C45.4689 47.17 44.8937 47.9314 44.4569 48.4382C43.7764 49.2117 43.1212 49.8025 42.4597 50.2143C41.7321 50.6772 40.8725 50.9245 39.999 50.9245C39.4073 50.9463 38.8159 50.8776 38.2467 50.721C37.7579 50.5627 37.2741 50.3909 36.798 50.1948C36.303 49.9766 35.7926 49.7922 35.2705 49.6429C33.9801 49.325 32.6271 49.3229 31.3357 49.6369C30.8062 49.783 30.297 49.9536 29.7942 50.1631C29.087 50.4482 28.6172 50.6394 28.3455 50.721C27.8033 50.8733 27.2408 50.9683 26.672 51C25.7921 51 24.9718 50.7588 24.1592 50.2703L24.1808 50.2533ZM35.786 20.2678C34.6357 20.8196 33.5374 21.0547 32.4467 20.978C32.2753 19.9243 32.4467 18.8462 32.9025 17.6658C33.2906 16.6657 33.864 15.7413 34.595 14.937C35.367 14.0904 36.3038 13.3965 37.3529 12.8941C38.4702 12.3423 39.5355 12.0439 40.5538 12C40.6859 13.1037 40.5538 14.1891 40.131 15.3622C39.7397 16.3992 39.1674 17.3648 38.4385 18.2176C37.6945 19.0654 36.7815 19.762 35.753 20.2666L35.786 20.2678Z" fill="#D9D9D9"/>
</svg>
