<svg width="360" height="184" viewBox="0 0 360 184" fill="none" xmlns="http://www.w3.org/2000/svg">
<ellipse cx="233.5" cy="143.5" rx="16.5" ry="17.5" fill="#00CC6A"/>
<ellipse cx="323" cy="30" rx="129" ry="121" fill="#086972"/>
<path d="M185.232 15.1994C185.533 13.5904 185.246 11.8647 184.337 10.5938L184.984 7.17801C185.872 7.20387 186.737 7.19792 187.561 7.15348L189.287 3.0411C185.273 3.67712 179.003 3.12746 171.788 0.0987493C164.573 -2.92996 159.789 -7.02032 157.432 -10.3307L155.706 -6.21833C156.251 -5.5989 156.852 -4.97785 157.493 -4.36186L155.508 -1.50767C154.757 -1.38264 154.021 -1.08823 153.348 -0.643043C152.674 -0.197857 152.076 0.388431 151.593 1.07878C149.054 4.74126 145.33 11.2906 148.888 14.1288C150.399 15.3488 153.825 16.1143 159.772 7.61375C160.71 6.22861 161.184 4.51887 160.968 2.84505L162.969 -0.0460181C164.262 0.800518 165.642 1.57491 167.108 2.32071L165.731 5.60324C164.239 6.25668 163.031 7.57174 162.388 9.10235C160.654 13.2332 158.365 20.4278 162.522 22.1728C164.306 22.9216 167.904 22.7402 171.945 13.1139C172.587 11.5833 172.68 9.80021 172.102 8.2776L173.479 4.99507C175.039 5.51959 176.558 5.96203 178.068 6.29222L177.406 9.74491C176.758 10.2403 176.196 10.8684 175.754 11.5899C175.313 12.3115 175.001 13.111 174.84 13.9386C172.938 24.1374 175.883 26.0463 177.813 26.2704C182.322 26.8186 184.389 19.5739 185.232 15.1994ZM157.718 5.99217C157.718 5.99217 152.631 13.3356 150.568 11.7324C148.537 10.0555 153.64 2.71881 153.64 2.71881C153.64 2.71881 155.344 0.267088 157.375 1.90043C159.405 3.53376 157.718 5.99217 157.718 5.99217ZM163.683 19.4066C161.294 18.4038 164.777 10.1052 164.777 10.1052C164.777 10.1052 165.939 7.33906 168.328 8.34195C170.717 9.34483 169.556 12.111 169.556 12.111C169.556 12.111 166.072 20.4095 163.683 19.4066ZM178.346 23.3926C175.773 23.0502 177.436 14.2693 177.436 14.2693C177.436 14.2693 178.001 11.3178 180.597 11.6485C183.193 11.9792 182.628 14.8872 182.628 14.8872C182.628 14.8872 180.966 23.668 178.346 23.3926Z" fill="#555555" fill-opacity="0.3"/>
<path d="M365.232 172.199C365.533 170.59 365.246 168.865 364.337 167.594L364.984 164.178C365.872 164.204 366.737 164.198 367.561 164.153L369.287 160.041C365.273 160.677 359.003 160.127 351.788 157.099C344.573 154.07 339.789 149.98 337.432 146.669L335.706 150.782C336.251 151.401 336.852 152.022 337.493 152.638L335.508 155.492C334.757 155.617 334.021 155.912 333.348 156.357C332.674 156.802 332.076 157.388 331.593 158.079C329.054 161.741 325.33 168.291 328.888 171.129C330.399 172.349 333.825 173.114 339.772 164.614C340.71 163.229 341.184 161.519 340.968 159.845L342.969 156.954C344.262 157.801 345.642 158.575 347.108 159.321L345.731 162.603C344.239 163.257 343.031 164.572 342.388 166.102C340.654 170.233 338.365 177.428 342.522 179.173C344.306 179.922 347.904 179.74 351.945 170.114C352.587 168.583 352.68 166.8 352.102 165.278L353.479 161.995C355.039 162.52 356.558 162.962 358.068 163.292L357.406 166.745C356.758 167.24 356.196 167.868 355.754 168.59C355.313 169.311 355.001 170.111 354.84 170.939C352.938 181.137 355.883 183.046 357.813 183.27C362.322 183.819 364.389 176.574 365.232 172.199ZM337.718 162.992C337.718 162.992 332.631 170.336 330.568 168.732C328.537 167.056 333.64 159.719 333.64 159.719C333.64 159.719 335.344 157.267 337.375 158.9C339.405 160.534 337.718 162.992 337.718 162.992ZM343.683 176.407C341.294 175.404 344.777 167.105 344.777 167.105C344.777 167.105 345.939 164.339 348.328 165.342C350.717 166.345 349.556 169.111 349.556 169.111C349.556 169.111 346.072 177.41 343.683 176.407ZM358.346 180.393C355.773 180.05 357.436 171.269 357.436 171.269C357.436 171.269 358.001 168.318 360.597 168.648C363.193 168.979 362.628 171.887 362.628 171.887C362.628 171.887 360.966 180.668 358.346 180.393Z" fill="#555555" fill-opacity="0.3"/>
<path d="M103.526 14.9241C103.505 13.2874 102.885 11.6516 101.744 10.5837L101.709 7.10732C102.585 6.95842 103.431 6.78305 104.231 6.57778L105.117 2.20667C101.306 3.6177 95.0495 4.30868 87.3804 2.75418C79.7112 1.19967 74.218 -1.87282 71.2572 -4.65648L70.3712 -0.285374C71.0277 0.215008 71.7389 0.706084 72.488 1.18442L71.1015 4.37253C70.3896 4.64245 69.7261 5.07544 69.1527 5.64415C68.5794 6.21285 68.1087 6.90492 67.7703 7.67663C65.9985 11.7661 63.6322 18.9186 67.6775 21.0038C69.3986 21.9037 72.9077 21.9823 77.0722 12.4802C77.7196 10.9381 77.8492 9.1686 77.3097 7.56955L78.7041 4.34223C80.1383 4.91863 81.6431 5.40732 83.2276 5.85093L82.5204 9.33997C81.1855 10.2734 80.2593 11.7998 79.9295 13.4267C79.0395 17.8174 78.2059 25.3214 82.6245 26.217C84.5206 26.6014 88.0133 25.7176 90.0873 15.4857C90.4171 13.8588 90.1583 12.0921 89.2923 10.7126L89.9995 7.22356C91.6316 7.43195 93.208 7.56781 94.7534 7.59537L94.7811 11.1109C94.2431 11.7238 93.815 12.45 93.5237 13.2441C93.2323 14.0382 93.0839 14.8833 93.0876 15.7265C93.2233 26.1002 96.4861 27.3942 98.4218 27.2356C102.951 26.8885 103.557 19.3791 103.526 14.9241ZM74.7395 11.2932C74.7395 11.2932 71.1918 19.4918 68.8551 18.3244C66.5344 17.0785 70.099 8.88329 70.099 8.88329C70.099 8.88329 71.2886 6.14503 73.6004 7.34826C75.9121 8.55148 74.7395 11.2932 74.7395 11.2932ZM83.2205 23.2768C80.681 22.7621 82.4689 13.9415 82.4689 13.9415C82.4689 13.9415 83.0649 11.0013 85.6044 11.516C88.1438 12.0307 87.5478 14.9709 87.5478 14.9709C87.5478 14.9709 85.7599 23.7916 83.2205 23.2768ZM98.3805 24.309C95.7906 24.4779 95.6984 15.5415 95.6984 15.5415C95.6984 15.5415 95.673 12.5365 98.2838 12.3515C100.895 12.1665 100.911 15.1288 100.911 15.1288C100.911 15.1288 101.003 24.0652 98.3805 24.309Z" fill="#555555" fill-opacity="0.3"/>
<path d="M37.3094 15.5122C36.5463 14.0641 35.2498 12.8896 33.7481 12.4576L32.1348 9.37806C32.8473 8.84682 33.5211 8.30561 34.1397 7.75908L32.94 3.46346C30.1882 6.4539 24.9315 9.9155 17.3948 12.0204C9.85816 14.1253 3.56857 13.8884 -0.334533 12.7566L0.865179 17.0522C1.67742 17.1992 2.53419 17.3129 3.41886 17.3981L3.63467 20.8679C3.12357 21.4321 2.72966 22.1196 2.47782 22.8869C2.22598 23.6542 2.12169 24.4847 2.17152 25.3258C2.45424 29.7737 3.60117 37.2196 8.15227 37.236C10.0944 37.2543 13.255 35.7278 12.6404 25.3714C12.5153 23.7036 11.8256 22.0689 10.6177 20.8904L10.3911 17.382C11.9305 17.2428 13.4929 16.9933 15.1057 16.6674L16.0633 20.0962C15.2993 21.5348 15.1689 23.3155 15.6154 24.9143C16.8205 29.2292 19.4922 36.2908 23.8345 35.078C25.6979 34.5576 28.4061 32.1815 25.5978 22.1263C25.1513 20.5275 24.1171 19.0721 22.7182 18.2376L21.7606 14.8088C23.3089 14.2518 24.7744 13.6556 26.1632 12.977L27.7873 16.0951C27.587 16.8856 27.5362 17.727 27.6381 18.5667C27.7399 19.4065 27.9922 20.2265 28.3792 20.9758C33.2197 30.1519 36.714 29.8197 38.3655 28.7978C42.2412 26.4279 39.364 19.4652 37.3094 15.5122ZM10.023 25.3756C10.023 25.3756 10.5938 34.2907 7.98189 34.3141C5.34842 34.2605 4.79423 25.3409 4.79423 25.3409C4.79423 25.3409 4.60771 22.3612 7.21379 22.3809C9.81987 22.4006 10.023 25.3756 10.023 25.3756ZM23.0276 32.1886C20.532 32.8856 18.111 24.2173 18.111 24.2173C18.111 24.2173 17.3041 21.3279 19.7996 20.6309C22.2952 19.9339 23.1022 22.8233 23.1022 22.8233C23.1022 22.8233 25.5232 31.4916 23.0276 32.1886ZM36.9973 26.2105C34.7678 27.5392 30.62 19.6232 30.62 19.6232C30.62 19.6232 29.2302 16.9588 31.4709 15.6062C33.7117 14.2536 35.074 16.8841 35.074 16.8841C35.074 16.8841 39.2219 24.8001 36.9973 26.2105Z" fill="#555555" fill-opacity="0.3"/>
<rect x="313" y="17" width="27.3758" height="11.1531" rx="1.33333" fill="black"/>
<path fill-rule="evenodd" clip-rule="evenodd" d="M291.586 15.2607C294.842 15.2609 297.973 16.48 300.333 18.6661C300.511 18.8348 300.795 18.8327 300.97 18.6613L302.668 16.9908C302.757 16.9039 302.806 16.7861 302.805 16.6636C302.805 16.541 302.754 16.4239 302.664 16.3379C296.471 10.554 286.7 10.554 280.507 16.3379C280.417 16.4238 280.366 16.5409 280.365 16.6635C280.364 16.786 280.414 16.9038 280.502 16.9908L282.201 18.6613C282.376 18.833 282.66 18.8351 282.838 18.6661C285.198 16.4798 288.33 15.2607 291.586 15.2607ZM291.586 20.6954C293.375 20.6953 295.1 21.3433 296.426 22.5134C296.605 22.6794 296.888 22.6758 297.063 22.5052L298.759 20.8348C298.849 20.7472 298.898 20.6283 298.897 20.5048C298.896 20.3813 298.844 20.2634 298.752 20.1776C294.714 16.5173 288.461 16.5173 284.423 20.1776C284.332 20.2634 284.28 20.3813 284.279 20.5049C284.277 20.6284 284.327 20.7473 284.417 20.8348L286.113 22.5052C286.288 22.6758 286.57 22.6794 286.749 22.5134C288.075 21.344 289.798 20.6961 291.586 20.6954ZM294.985 24.352C294.987 24.4759 294.937 24.5953 294.846 24.6821L291.912 27.5682C291.826 27.653 291.708 27.7007 291.586 27.7007C291.464 27.7007 291.346 27.653 291.26 27.5682L288.325 24.6821C288.234 24.5952 288.184 24.4758 288.187 24.3519C288.19 24.2281 288.245 24.1108 288.339 24.0277C290.213 22.483 292.958 22.483 294.833 24.0277C294.927 24.1108 294.982 24.2282 294.985 24.352Z" fill="black"/>
<path fill-rule="evenodd" clip-rule="evenodd" d="M271.509 12.4811H270.04C269.229 12.4811 268.571 13.1221 268.571 13.9129V26.322C268.571 27.1128 269.229 27.7538 270.04 27.7538H271.509C272.321 27.7538 272.979 27.1128 272.979 26.322V13.9129C272.979 13.1221 272.321 12.4811 271.509 12.4811ZM263.183 15.822H264.652C265.464 15.822 266.122 16.463 266.122 17.2538V26.322C266.122 27.1128 265.464 27.7538 264.652 27.7538H263.183C262.372 27.7538 261.714 27.1128 261.714 26.322V17.2538C261.714 16.463 262.372 15.822 263.183 15.822ZM257.796 19.1629H256.326C255.515 19.1629 254.857 19.8039 254.857 20.5947V26.322C254.857 27.1128 255.515 27.7538 256.326 27.7538H257.796C258.607 27.7538 259.265 27.1128 259.265 26.322V20.5947C259.265 19.8039 258.607 19.1629 257.796 19.1629ZM250.939 22.0265H249.469C248.658 22.0265 248 22.6676 248 23.4584V26.322C248 27.1128 248.658 27.7538 249.469 27.7538H250.939C251.75 27.7538 252.408 27.1128 252.408 26.322V23.4584C252.408 22.6676 251.75 22.0265 250.939 22.0265Z" fill="black"/>
<path d="M26.5 16.7324V31H24.1465V19.5254L20.6602 20.707V18.7637L26.2168 16.7324H26.5ZM40.8848 16.7812V18.0703L35.2012 31H32.7207L38.3945 18.6562H31.0312V16.7812H40.8848ZM42.9746 29.8281C42.9746 29.4635 43.0983 29.1576 43.3457 28.9102C43.5931 28.6562 43.9284 28.5293 44.3516 28.5293C44.7812 28.5293 45.1165 28.6562 45.3574 28.9102C45.6048 29.1576 45.7285 29.4635 45.7285 29.8281C45.7285 30.1927 45.6048 30.4987 45.3574 30.7461C45.1165 30.9935 44.7812 31.1172 44.3516 31.1172C43.9284 31.1172 43.5931 30.9935 43.3457 30.7461C43.0983 30.4987 42.9746 30.1927 42.9746 29.8281ZM42.9844 21.5078C42.9844 21.1432 43.1081 20.8372 43.3555 20.5898C43.6029 20.3359 43.9382 20.209 44.3613 20.209C44.791 20.209 45.1263 20.3359 45.3672 20.5898C45.6146 20.8372 45.7383 21.1432 45.7383 21.5078C45.7383 21.8724 45.6146 22.1784 45.3672 22.4258C45.1263 22.6732 44.791 22.7969 44.3613 22.7969C43.9382 22.7969 43.6029 22.6732 43.3555 22.4258C43.1081 22.1784 42.9844 21.8724 42.9844 21.5078ZM57.6133 29.125V31H48.082V29.3887L52.7109 24.3398C53.2188 23.7669 53.6191 23.2721 53.9121 22.8555C54.2051 22.4388 54.4102 22.0645 54.5273 21.7324C54.651 21.3939 54.7129 21.0651 54.7129 20.7461C54.7129 20.2969 54.6283 19.903 54.459 19.5645C54.2962 19.2194 54.0553 18.9492 53.7363 18.7539C53.4173 18.5521 53.0299 18.4512 52.5742 18.4512C52.0469 18.4512 51.6042 18.5651 51.2461 18.793C50.888 19.0208 50.6178 19.3366 50.4355 19.7402C50.2533 20.1374 50.1621 20.5931 50.1621 21.1074H47.8086C47.8086 20.2806 47.9974 19.5254 48.375 18.8418C48.7526 18.1517 49.2995 17.6048 50.0156 17.2012C50.7318 16.791 51.5944 16.5859 52.6035 16.5859C53.554 16.5859 54.3613 16.7454 55.0254 17.0645C55.6895 17.3835 56.194 17.8359 56.5391 18.4219C56.8906 19.0078 57.0664 19.7012 57.0664 20.502C57.0664 20.9447 56.9948 21.3841 56.8516 21.8203C56.7083 22.2565 56.5033 22.6927 56.2363 23.1289C55.9759 23.5586 55.6667 23.9915 55.3086 24.4277C54.9505 24.8574 54.5566 25.2936 54.127 25.7363L51.0508 29.125H57.6133ZM61.9199 24.3887L60.0449 23.9297L60.8164 16.7812H68.4824V18.7734H62.7695L62.3789 22.2598C62.6003 22.1296 62.9062 22.0026 63.2969 21.8789C63.6875 21.7487 64.1335 21.6836 64.6348 21.6836C65.3053 21.6836 65.9043 21.7943 66.4316 22.0156C66.9655 22.2305 67.418 22.5462 67.7891 22.9629C68.1602 23.373 68.4434 23.8743 68.6387 24.4668C68.834 25.0527 68.9316 25.7135 68.9316 26.4492C68.9316 27.1068 68.834 27.722 68.6387 28.2949C68.4499 28.8678 68.1634 29.3724 67.7793 29.8086C67.3952 30.2448 66.9102 30.5866 66.3242 30.834C65.7448 31.0749 65.0579 31.1953 64.2637 31.1953C63.6712 31.1953 63.1016 31.1107 62.5547 30.9414C62.0143 30.7656 61.5293 30.5085 61.0996 30.1699C60.6699 29.8249 60.3249 29.4017 60.0645 28.9004C59.804 28.3926 59.6543 27.8099 59.6152 27.1523H61.9199C61.9785 27.6146 62.1055 28.0085 62.3008 28.334C62.5026 28.653 62.7695 28.8971 63.1016 29.0664C63.4336 29.2357 63.8177 29.3203 64.2539 29.3203C64.651 29.3203 64.9928 29.252 65.2793 29.1152C65.5658 28.972 65.8034 28.7702 65.9922 28.5098C66.1875 28.2428 66.3307 27.9303 66.4219 27.5723C66.5195 27.2142 66.5684 26.8171 66.5684 26.3809C66.5684 25.9642 66.513 25.5833 66.4023 25.2383C66.2982 24.8932 66.1387 24.5938 65.9238 24.3398C65.7155 24.0859 65.4518 23.8906 65.1328 23.7539C64.8138 23.6107 64.446 23.5391 64.0293 23.5391C63.4694 23.5391 63.0397 23.6204 62.7402 23.7832C62.4473 23.946 62.1738 24.1478 61.9199 24.3887Z" fill="black"/>
</svg>
