<svg width="66" height="66" viewBox="0 0 66 66" fill="none" xmlns="http://www.w3.org/2000/svg">
<circle cx="33" cy="33" r="33" fill="#D9D9D9"/>
<path fill-rule="evenodd" clip-rule="evenodd" d="M4.3999 33.6022C4.3999 48.0399 14.8858 60.0455 28.5999 62.48V41.5059H21.3399V33.44H28.5999V26.9859C28.5999 19.7259 33.2778 15.6942 39.894 15.6942C41.9898 15.6942 44.25 16.016 46.3458 16.3379V23.76H42.6359C39.0858 23.76 38.2799 25.5339 38.2799 27.7942V33.44H46.0239L44.734 41.5059H38.2799V62.48C51.994 60.0455 62.4799 48.0423 62.4799 33.6022C62.4799 17.5406 49.4119 4.40002 33.4399 4.40002C17.4679 4.40002 4.3999 17.5406 4.3999 33.6022Z" fill="#555555"/>
</svg>
