<svg width="66" height="66" viewBox="0 0 66 66" fill="none" xmlns="http://www.w3.org/2000/svg">
<circle cx="33" cy="33" r="33" fill="#D9D9D9"/>
<path d="M33.4399 4.39999C17.4031 4.39999 4.3999 17.4032 4.3999 33.44C4.3999 49.4768 17.4031 62.48 33.4399 62.48C49.4767 62.48 62.4799 49.4768 62.4799 33.44C62.4799 17.4032 49.4767 4.39999 33.4399 4.39999ZM44.2651 45.4709C41.6333 47.8952 38.0422 49.3212 33.7575 49.3212C27.5541 49.3212 22.1869 45.7625 19.5746 40.5768C18.4986 38.4312 17.8828 36.0069 17.8828 33.44C17.8828 30.8731 18.4986 28.4487 19.5746 26.3032C22.1869 21.111 27.5541 17.5523 33.7575 17.5523C38.0357 17.5523 41.6268 19.1274 44.3818 21.6879L39.8313 26.2448C38.1848 24.6697 36.0911 23.8724 33.764 23.8724C29.6284 23.8724 26.128 26.6662 24.877 30.4193C24.5594 31.3722 24.3779 32.3899 24.3779 33.44C24.3779 34.4901 24.5594 35.5078 24.877 36.4607C26.128 40.2138 29.6284 43.0076 33.7575 43.0076C35.8966 43.0076 37.7116 42.4437 39.1312 41.4908C40.8166 40.3629 41.9315 38.684 42.301 36.694H33.7575V30.549H48.7118C48.8998 31.5926 48.997 32.6751 48.997 33.7965C48.997 38.6387 47.2663 42.703 44.2651 45.4709Z" fill="#555555"/>
</svg>
